<svg width="256" height="256" viewBox="0 0 256 256" fill="none" xmlns="http://www.w3.org/2000/svg">
<rect width="256" height="256" rx="60" fill="#3A3D98"/>
<g clip-path="url(#clip0_8_23)">
<path d="M127.671 114.087L119.514 121.961H124.841V147.554L127.671 144.854V114.087Z" fill="white"/>
<path d="M130.022 142.567L138.323 134.496H132.847V109.488L130.022 111.817V142.567Z" fill="white"/>
<path d="M232.764 118.684C233.704 119.264 234.381 119.754 234.795 120.155L237.729 113.536C236.262 112.467 234.494 111.508 232.425 110.662C230.394 109.815 228.193 109.391 225.823 109.391C223.566 109.391 221.479 109.837 219.56 110.728C217.679 111.62 216.175 112.935 215.046 114.673C213.955 116.411 213.41 118.573 213.41 121.158C213.41 124.055 214.181 126.284 215.723 127.844C217.303 129.359 219.711 130.607 222.946 131.588C225.541 132.39 227.629 133.126 229.209 133.794C230.827 134.418 231.635 135.466 231.635 136.937C231.635 139.121 229.905 140.213 226.444 140.213C224.714 140.213 223.077 139.967 221.535 139.477C219.993 138.987 218.639 138.385 217.472 137.672C216.344 136.959 215.535 136.313 215.046 135.733L211.999 142.753C213.955 144.224 216.193 145.383 218.714 146.23C221.234 147.077 223.773 147.5 226.331 147.5C228.551 147.5 230.62 147.143 232.538 146.43C234.457 145.673 235.999 144.469 237.165 142.82C238.369 141.126 238.971 138.898 238.971 136.134C238.971 133.861 238.519 132.034 237.616 130.652C236.751 129.226 235.491 128.089 233.836 127.242C232.218 126.395 230.3 125.638 228.08 124.969C225.56 124.256 223.642 123.61 222.325 123.03C221.046 122.451 220.407 121.47 220.407 120.088C220.407 117.726 222.175 116.545 225.711 116.545C227.027 116.545 228.306 116.768 229.548 117.214C230.789 117.615 231.861 118.105 232.764 118.684Z" fill="white"/>
<path fill-rule="evenodd" clip-rule="evenodd" d="M173.384 147.299C170.901 147.299 168.644 146.787 166.613 145.762C164.582 144.692 162.831 143.266 161.364 141.483C159.897 139.655 158.769 137.605 157.979 135.332C157.19 133.059 156.794 130.719 156.794 128.312C156.794 125.861 157.208 123.498 158.035 121.225C158.863 118.952 160.03 116.946 161.535 115.208C163.039 113.425 164.806 112.021 166.838 110.996C168.869 109.971 171.088 109.458 173.496 109.458C175.979 109.458 178.237 110.015 180.268 111.13C182.299 112.199 184.03 113.648 185.459 115.475C186.926 117.258 188.054 119.286 188.844 121.559C189.634 123.833 190.03 126.15 190.03 128.512C190.03 130.964 189.616 133.326 188.788 135.599C187.961 137.828 186.793 139.834 185.289 141.617C183.822 143.355 182.074 144.737 180.042 145.762C178.011 146.787 175.792 147.299 173.384 147.299ZM163.678 128.379C163.678 130.385 164.074 132.301 164.864 134.129C165.653 135.911 166.762 137.36 168.192 138.474C169.659 139.589 171.408 140.146 173.439 140.146C175.508 140.146 177.258 139.566 178.687 138.407C180.118 137.204 181.207 135.711 181.96 133.928C182.712 132.1 183.089 130.229 183.089 128.312C183.089 126.306 182.694 124.412 181.904 122.629C181.114 120.846 179.986 119.42 178.518 118.35C177.088 117.236 175.378 116.679 173.384 116.679C171.315 116.679 169.546 117.258 168.079 118.417C166.65 119.576 165.559 121.047 164.806 122.83C164.054 124.613 163.678 126.462 163.678 128.379Z" fill="white"/>
<path fill-rule="evenodd" clip-rule="evenodd" d="M18 147.032L31.7678 109.659H37.354L51.0654 147.032H43.8429L40.6831 138.274H28.4387L25.2789 147.032H18ZM34.5891 119.487L29.9622 131.254H39.0467L34.5891 119.487Z" fill="white"/>
<path d="M77.7418 109.659L86.4313 122.896L95.1209 109.659H102.513L90.0426 128.579L102.118 147.032H94.7259L86.4313 134.329L78.1932 147.032H70.6886L82.8201 128.579L70.2936 109.659H77.7418Z" fill="white"/>
</g>
<defs>
<clipPath id="clip0_8_23">
<rect width="221" height="39" fill="white" transform="translate(18 109)"/>
</clipPath>
</defs>
</svg>
